The Fugitive 1993 Bluray 1080p ac3 x264-LoNeWoLf

Encoded by Tequila-Bob a.k.a. bobnjeff a.k.a.LoNeWoLf

Source - NTSC BluRay Disc.

Movie has been tested and is DXVA Compliant



The Fugitive (1993) 
  130 min  -  Action | Adventure | Crime   -  6 August 1993 (USA) 
  7.8/10 X  Users: 7.8/10 (100,338 votes) 224 reviews | Critics: 74 reviews Metascore: 86/100 
Dr. Richard Kimble, unjustly accused of killing his wife, must find the real one-armed killer 
while avoiding Marshal Sam Gerard. 
 
http://www.imdb.com/title/tt0106977/

Genres:Action, Adventure, Crime, Drama, Thriller 

Rated PG-13 for a murder and other action sequences in an adventure setting.




Director: Andrew Davis
Writers: Jeb Stuart (screenplay), David Twohy (screenplay), and 2 more credits » 
Stars:Harrison Ford, Tommy Lee Jones and Sela Ward

Storyline
A well respected Chicago surgeon Dr. Richard Kimble has found out that his wife, Helen, has been murdered ferociously in her own home. The police found Kimble and accused him of the murder. Then, Kimble (without Justifiable Reason) was tried, convicted, and sentenced to death. However, on the way to prison, Kimble's transport crashed. Kimble escapes and is now on the run. Deputy Samuel Gerard from Chicago takes charge of the chase of Kimble. Meanwhile, Kimble makes up his own investigation to find who really killed his wife, and to lure Gerard and his team into it as well. 



Cast
Cast overview, first billed only: 
  Harrison Ford  ...  Dr. Richard Kimble  
  Tommy Lee Jones  ...  Samuel Gerard  
  Sela Ward  ...  Helen Kimble  
  Julianne Moore  ...  Dr. Anne Eastman  
  Joe Pantoliano  ...  Cosmo Renfro  
  Andreas Katsulas  ...  Sykes  
  Jeroen Krabbé  ...  Dr. Charles Nichols (as Jeroen Krabbe)  
  Daniel Roebuck  ...  Biggs  
  L. Scott Caldwell  ...  Poole  
  Tom Wood  ...  Newman  
  Ron Dean  ...  Detective Kelly  
  Joseph F. Kosala  ...  Detective Rosetti (as Joseph Kosala)  
  Miguel Nino  ...  Chicago Cop #1  
  John Drummond  ...  Newscaster  
  Tony Fosco  ...  Chicago Cop #2 


[img]http://torrent-stats.info/27e0/2d61cca0.png[/img]

See the full size 1920x1072 PNG files at the link below

 
http://s1015.photobucket.com/albums/af279/tequila-bob/The%20Fugitive%201993/





Format : Matroska 
File size : 9.77 GiB 
Duration : 2h 10mn 
Overall bit rate : 10.7 Mbps 
Encoded date : UTC 2011-01-20 01:06:24 
Writing application : mkvmerge v4.4.0 ('Die Wiederkehr') built on Oct 31 2010 21:52:48 
Writing library : libebml v1.0.0 + libmatroska v1.0.0 

Video 
ID : 1 
Format : AVC 
Format/Info : Advanced Video Codec 
Format profile : High@L4.1 
Format settings, CABAC : Yes 
Format settings, ReFrames : 3 frames 
Muxing mode : Container profile=Unknown@4.1 
Codec ID : V_MPEG4/ISO/AVC 
Duration : 2h 10mn 
Bit rate : 10.0 Mbps 
Width : 1 920 pixels 
Height : 1 072 pixels 
Display aspect ratio : 16:9 
Frame rate : 23.976 fps 
Color space : YUV 
Chroma subsampling : 4:2:0 
Bit depth : 8 bits 
Scan type : Progressive 
Bits/(Pixel*Frame) : 0.204 
Stream size : 8.99 GiB (92%) 
Writing library : x264 core 112 r1867 22bfd31 
Encoding settings : cabac=1 / ref=4 / deblock=1:-3:-1 / analyse=0x3:0x113 / me=umh / subme=9 / psy=1 / psy_rd=1.00:0.08 / mixed_ref=1 / me_range=32 / chroma_me=1 / trellis=2 / 8x8dct=1 / cqm=0 / deadzone=21,11 / fast_pskip=0 / chroma_qp_offset=-3 / threads=6 / sliced_threads=0 / nr=0 / decimate=1 / interlaced=0 / constrained_intra=0 / bframes=5 / b_pyramid=1 / b_adapt=2 / b_bias=0 / direct=1 / weightb=1 / open_gop=2 / weightp=2 / keyint=250 / keyint_min=23 / scenecut=40 / intra_refresh=0 / rc_lookahead=100 / rc=2pass / mbtree=1 / bitrate=10049 / ratetol=1.0 / qcomp=0.60 / qpmin=10 / qpmax=51 / qpstep=4 / cplxblur=20.0 / qblur=0.5 / vbv_maxrate=50000 / vbv_bufsize=50000 / nal_hrd=none / ip_ratio=1.40 / aq=1:1.50 
Language : English 

Audio 
ID : 2 
Format : AC-3 
Format/Info : Audio Coding 3 
Mode extension : CM (complete main) 
Codec ID : A_AC3 
Duration : 2h 10mn 
Bit rate mode : Constant 
Bit rate : 640 Kbps 
Channel(s) : 6 channels 
Channel positions : Front: L C R, Side: L R, LFE 
Sampling rate : 48.0 KHz 
Bit depth : 16 bits 
Stream size : 596 MiB (6%) 
Title : 3/2+1 
Language : English 

Text #1 
ID : 3 
Format : PGS 
Codec ID : S_HDMV/PGS 
Codec ID/Info : The same subtitle format used on BDs/HD-DVDs 
Language : English 

Text #2 
ID : 4 
Format : PGS 
Codec ID : S_HDMV/PGS 
Codec ID/Info : The same subtitle format used on BDs/HD-DVDs 
Language : French 

Text #3 
ID : 5 
Format : PGS 
Codec ID : S_HDMV/PGS 
Codec ID/Info : The same subtitle format used on BDs/HD-DVDs 
Language : Spanish 

Text #4 
ID : 6 
Format : PGS 
Codec ID : S_HDMV/PGS 
Codec ID/Info : The same subtitle format used on BDs/HD-DVDs 
Language : English 

Menu & 41 Chapters


 



See the full size 1920x1072 PNG files at the link below

 
http://s1015.photobucket.com/albums/af279/tequila-bob/The%20Fugitive%201993/


